<svg width="512" height="512" viewBox="0 0 512 512" fill="none" xmlns="http://www.w3.org/2000/svg">
  <!-- Background -->
  <rect width="512" height="512" rx="112" fill="url(#bg-gradient)"/>
  
  <!-- Bowl shadow -->
  <ellipse cx="256" cy="340" rx="140" ry="35" fill="#000" fill-opacity="0.1"/>
  
  <!-- Bowl body -->
  <path d="M116 220 C116 220 116 340 256 340 C396 340 396 220 396 220 L116 220 Z" fill="url(#bowl-gradient)"/>
  
  <!-- Bowl rim -->
  <ellipse cx="256" cy="220" rx="140" ry="40" fill="url(#rim-gradient)"/>
  
  <!-- Bowl inner -->
  <ellipse cx="256" cy="220" rx="115" ry="28" fill="url(#inner-gradient)"/>
  
  <!-- Steam lines -->
  <path d="M200 160 Q190 140 200 120" stroke="white" stroke-width="12" stroke-linecap="round" fill="none" opacity="0.6"/>
  <path d="M256 150 Q246 125 256 100" stroke="white" stroke-width="12" stroke-linecap="round" fill="none" opacity="0.8"/>
  <path d="M312 160 Q302 140 312 120" stroke="white" stroke-width="12" stroke-linecap="round" fill="none" opacity="0.6"/>
  
  <defs>
    <linearGradient id="bg-gradient" x1="0" y1="0" x2="512" y2="512">
      <stop offset="0%" stop-color="#FF9F43"/>
      <stop offset="100%" stop-color="#EE5A24"/>
    </linearGradient>
    
    <linearGradient id="bowl-gradient" x1="256" y1="220" x2="256" y2="340">
      <stop offset="0%" stop-color="#FFFFFF"/>
      <stop offset="100%" stop-color="#E8E8E8"/>
    </linearGradient>
    
    <linearGradient id="rim-gradient" x1="116" y1="220" x2="396" y2="220">
      <stop offset="0%" stop-color="#F5F5F5"/>
      <stop offset="50%" stop-color="#FFFFFF"/>
      <stop offset="100%" stop-color="#E8E8E8"/>
    </linearGradient>
    
    <linearGradient id="inner-gradient" x1="141" y1="192" x2="371" y2="248">
      <stop offset="0%" stop-color="#FFB347"/>
      <stop offset="100%" stop-color="#FF8C00"/>
    </linearGradient>
  </defs>
</svg>

